<?xml version="1.0" encoding="UTF-8"?>
<svg width="19px" height="18px" viewBox="0 0 19 18" version="1.1" xmlns="http://www.w3.org/2000/svg" xmlns:xlink="http://www.w3.org/1999/xlink">
    <!-- Generator: sketchtool 61 (101010) - https://sketch.com -->
    <title>10A26629-F831-4010-A3E9-90804F42EC1D</title>
    <desc>Created with sketchtool.</desc>
    <g id="Page-1" stroke="none" stroke-width="1" fill="none" fill-rule="evenodd">
        <g id="Kategori-side" transform="translate(-36.000000, -7.000000)" fill="#949494">
            <g id="Header_white">
                <g id="Group-18">
                    <g>
                        <g id="Flag_header" transform="translate(36.000000, 7.000000)">
                            <path d="M18.3259997,8.8539999 L18.3279982,8.94499914 C18.3279982,13.7912974 14.429518,17.7199984 9.62049891,17.7199984 C9.449085,17.7199984 9.27882794,17.7150069 9.10986304,17.7051604 L9.10899966,8.8539999 L18.3259997,8.8539999 Z M6.94899966,8.8539999 L6.94943134,17.2994272 C3.44711611,16.1631183 0.912999663,12.8522901 0.912999663,8.94499914 C0.912999663,8.91481041 0.913150937,8.88465728 0.913452764,8.85454048 L6.94899966,8.8539999 Z M6.94943134,0.590571081 L6.94899966,6.6939999 L1.20189524,6.69497602 C1.96025628,3.80575637 4.14429302,1.50068434 6.94943134,0.590571081 Z M9.62049891,0.169999899 C13.6577089,0.169999899 17.053195,2.93884497 18.0391026,6.69497602 L9.10899966,6.6939999 L9.10986304,0.184837935 C9.19417951,0.179924323 9.27881776,0.176219722 9.36376096,0.173741077 Z" id="Combined-Shape"></path>
                        </g>
                    </g>
                </g>
            </g>
        </g>
    </g>
</svg>