<?xml version="1.0" encoding="utf-8"?>
<!-- Generator: Adobe Illustrator 16.0.0, SVG Export Plug-In . SVG Version: 6.00 Build 0)  -->
<!DOCTYPE svg PUBLIC "-//W3C//DTD SVG 1.1//EN" "http://www.w3.org/Graphics/SVG/1.1/DTD/svg11.dtd">
<svg version="1.1" id="Layer_1" xmlns:sketch="http://www.bohemiancoding.com/sketch/ns"
	 xmlns="http://www.w3.org/2000/svg" xmlns:xlink="http://www.w3.org/1999/xlink" x="0px" y="0px" width="50px" height="50px"
	 viewBox="0 0 50 50" enable-background="new 0 0 50 50" xml:space="preserve">
<title></title>
<path fill="#FFFFFF" d="M25,0C11.193,0,0,11.193,0,25c0,13.807,11.193,25,25,25c13.807,0,25-11.193,25-25C50,11.193,38.807,0,25,0z
	 M25,47C12.85,47,3,37.15,3,25S12.85,3,25,3s22,9.85,22,22S37.15,47,25,47z"/>
<path fill="#FFFFFF" d="M37.281,25.414c0,1.703-0.047,3.414,0.008,5.117c0.117,3.273-2.242,6.008-5.359,6.789
	c-0.609,0.156-1.258,0.25-1.883,0.258c-3.305,0.023-6.609,0.055-9.914,0c-2.758-0.047-4.93-1.219-6.398-3.602
	c-0.562-0.914-0.844-1.93-0.844-3.008c-0.008-3.711-0.039-7.422,0.008-11.125c0.031-2.422,1.242-4.211,3.25-5.492
	c1.25-0.797,2.633-1.156,4.109-1.156c3.227-0.008,6.453-0.039,9.68,0.008c2.844,0.039,5.094,1.227,6.555,3.727
	c0.523,0.898,0.789,1.891,0.789,2.945C37.273,21.719,37.281,23.57,37.281,25.414z M14.688,25.398c0,1.781,0,3.57,0,5.352
	c0,0.711,0.133,1.398,0.469,2.031c1.078,2.031,2.844,2.953,5.07,2.984c3.227,0.047,6.461,0.023,9.688,0
	c0.555,0,1.117-0.094,1.656-0.234c2.148-0.578,3.977-2.438,3.914-5.164c-0.078-3.438-0.016-6.875-0.016-10.312
	c0-0.758-0.141-1.477-0.508-2.141c-1.102-1.977-2.859-2.875-5.047-2.906c-3.219-0.047-6.43-0.031-9.648,0
	c-0.641,0.008-1.297,0.125-1.914,0.312c-2.102,0.648-3.758,2.516-3.672,5.031C14.734,22.039,14.688,23.719,14.688,25.398z"/>
<path fill="#FFFFFF" d="M25.086,19.297c3.18-0.008,5.758,2.531,5.758,5.656c-0.008,3.109-2.578,5.648-5.727,5.656
	c-3.172,0.008-5.742-2.523-5.742-5.664C19.375,21.828,21.922,19.305,25.086,19.297z M25.086,21.109
	c-2.141,0.008-3.906,1.75-3.898,3.852s1.766,3.828,3.922,3.836c2.148,0,3.914-1.727,3.922-3.828
	C29.023,22.836,27.25,21.102,25.086,21.109z"/>
<path fill="#FFFFFF" d="M32.719,18.805c0.016,0.664-0.531,1.25-1.18,1.273c-0.664,0.023-1.234-0.539-1.242-1.234
	c-0.008-0.68,0.516-1.25,1.164-1.273C32.125,17.547,32.703,18.117,32.719,18.805z"/>
</svg>
