<?xml version="1.0" encoding="utf-8"?>
<!-- Generator: Adobe Illustrator 16.0.0, SVG Export Plug-In . SVG Version: 6.00 Build 0)  -->
<!DOCTYPE svg PUBLIC "-//W3C//DTD SVG 1.1//EN" "http://www.w3.org/Graphics/SVG/1.1/DTD/svg11.dtd">
<svg version="1.1" id="Layer_1" xmlns="http://www.w3.org/2000/svg" xmlns:xlink="http://www.w3.org/1999/xlink" x="0px" y="0px"
	 width="48px" height="48px" viewBox="0 0 48 48" enable-background="new 0 0 48 48" xml:space="preserve">
<path fill="none" stroke="#000000" stroke-width="1.25" stroke-linecap="round" stroke-linejoin="round" stroke-miterlimit="10" d="
	M40.283,28.426c0.386-1.41,0.592-2.894,0.592-4.426c0-9.251-7.499-16.75-16.75-16.75S7.375,14.749,7.375,24s7.499,16.75,16.75,16.75
	c1.63,0,3.214-0.204,4.695-0.667c1.597-0.499,7.347-3.583,4.138-8.208"/>
<path fill="none" stroke="#000000" stroke-width="1.25" stroke-linecap="round" stroke-linejoin="round" stroke-miterlimit="10" d="
	M20.292,27.042c7.042,5.375,9.023,6.563,11.625,3.125c2.333-3.083,0.292-3.042-2.542-5.011c-0.685-0.476-1.772-0.822-2.583,0.303
	c-0.75,1.041-1.333,1.166-4.25-1.292c-2.816-2.374-3.421-3.226-1.833-4.417c1.333-1,1.458-1.417-0.708-4.292
	c-2.049-2.718-3.541-0.708-5.208,1.417S17.037,24.557,20.292,27.042z"/>
</svg>
