<?xml version="1.0" encoding="UTF-8"?>
<svg width="24px" height="21px" viewBox="0 0 24 21" version="1.1" xmlns="http://www.w3.org/2000/svg" xmlns:xlink="http://www.w3.org/1999/xlink">
    <!-- Generator: sketchtool 61 (101010) - https://sketch.com -->
    <title>C5A8E3AE-9E54-42D6-9100-CFF4DBAFAFAF</title>
    <desc>Created with sketchtool.</desc>
    <defs>
        <polygon id="path-1" points="0.0550982297 0.191370387 13.5602796 0.191370387 13.5602796 9.1947502 0.0550982297 9.1947502"></polygon>
    </defs>
    <g id="Page-1" stroke="none" stroke-width="1" fill="none" fill-rule="evenodd">
        <g id="Kategori-side" transform="translate(-322.000000, -4.000000)">
            <g id="Header_white">
                <g id="Group-18">
                    <g>
                        <g id="101_nat" transform="translate(322.000000, 4.000000)">
                            <g id="Group-26-Copy" transform="translate(0.000000, 7.000000)">
                                <polygon id="Fill-1" fill="#FFFFFF" points="0.500919455 6.10827669 11.0038581 10.6100038 23.5072006 5.10971176 13.5051814 1.1072671"></polygon>
                                <g id="Group-25" transform="translate(0.000000, 0.015855)">
                                    <path d="M1.82884711,6.11828605 L11.0025485,10.0487031 L22.2175785,5.11481014 L13.5022348,1.62801786 L1.82884711,6.11828605 Z M11.0041855,11.0947408 C10.9370688,11.0947408 10.8699522,11.0816448 10.8077465,11.053816 L0.30317086,6.55208884 C0.116553808,6.47187625 -0.00294658503,6.28853318 0.000261786139,6.08390922 C0.0036013817,5.87928526 0.131286733,5.69921617 0.321177768,5.62555155 L13.3254397,0.624541957 C13.4433031,0.57870619 13.5742624,0.580343181 13.6921258,0.626178948 L23.695782,4.62862361 C23.8823991,4.70392523 24.0051734,4.88235732 24.0085952,5.0837073 C24.0133584,5.28505728 23.895495,5.47003734 23.7105149,5.55024993 L11.2071725,11.053816 C11.1416928,11.0800078 11.0729391,11.0947408 11.0041855,11.0947408 L11.0041855,11.0947408 Z" id="Fill-2" fill="#949494"></path>
                                    <polygon id="Fill-4" fill="#EEEEEE" points="11.0041855 13.0962905 11.0041855 10.5949672 0.499609862 6.09324007 0.499609862 8.59456337"></polygon>
                                    <path d="M1.00069302,8.26372735 L10.5050667,12.3365627 L10.5050667,10.9238388 L1.00069302,6.85264052 L1.00069302,8.26372735 Z M11.0043492,13.5954093 C10.9372325,13.5954093 10.8701159,13.5823133 10.8079102,13.5544845 L0.303334559,9.05275734 C0.118354499,8.97581873 0.000491097504,8.79411265 0.000491097504,8.59439967 L0.000491097504,6.09307637 C0.000491097504,5.92446623 0.0839776734,5.76895202 0.224758958,5.67564349 C0.365540243,5.58233497 0.543972336,5.56760204 0.697849555,5.63308171 L11.2007882,10.1348088 C11.3857683,10.2133844 11.5052686,10.3950905 11.5052686,10.5948035 L11.5052686,13.0961268 C11.5052686,13.2647369 11.4201451,13.4202511 11.2793638,13.5135597 C11.1975142,13.5675804 11.1009317,13.5954093 11.0043492,13.5954093 L11.0043492,13.5954093 Z" id="Fill-6" fill="#949494"></path>
                                    <polygon id="Fill-8" fill="#EEEEEE" points="23.5085102 5.09287446 23.5085102 7.59419775 11.0035307 13.0961268 11.0035307 10.5948035"></polygon>
                                    <g id="Group-12" transform="translate(10.449150, 4.401150)">
                                        <mask id="mask-2" fill="white">
                                            <use xlink:href="#path-1"></use>
                                        </mask>
                                        <g id="Clip-11"></g>
                                        <path d="M1.05530015,6.52023318 L1.05530015,7.92804603 L12.5600777,2.86646775 L12.5600777,1.4586549 L1.05530015,6.52023318 Z M0.554380693,9.19507759 C0.459435176,9.19507759 0.364489658,9.16724874 0.282640074,9.11322801 C0.140221797,9.02155648 0.0550982297,8.86440527 0.0550982297,8.69579513 L0.0550982297,6.19283485 C0.0550982297,5.99475885 0.171324639,5.81632676 0.353030716,5.73611417 L12.8596472,0.23418512 C13.0135244,0.165431469 13.1919565,0.180164394 13.3343748,0.27347292 C13.475156,0.365144455 13.5602796,0.522295656 13.5602796,0.6909058 L13.5602796,3.19222909 C13.5602796,3.39030509 13.4424162,3.57037417 13.2607101,3.65058676 L0.757367662,9.15251581 C0.691887995,9.18034467 0.623134344,9.19507759 0.554380693,9.19507759 L0.554380693,9.19507759 Z" id="Fill-10" fill="#949494" mask="url(#mask-2)"></path>
                                    </g>
                                </g>
                            </g>
                            <circle id="Oval" fill="#F9F9F9" cx="11.1999998" cy="6.99999988" r="6.99999988"></circle>
                            <g id="Group-10" transform="translate(4.200000, 2.100000)" stroke="#F88A02" stroke-linecap="round" stroke-width="0.979999983">
                                <path d="M11.0756098,4.22940417 C11.3320849,6.27716664 10.2592705,8.2616792 8.40548716,9.16865239 C6.55170589,10.0756256 4.32647873,9.70469628 2.86712995,8.2454462" id="Stroke-1"></path>
                                <path d="M1.48364997,5.38020415 C1.32735979,4.01240907 1.76196717,2.6428983 2.67835465,1.61551111 C3.59474214,0.588123932 4.90587502,0.000438312341 6.28256989,7.4606986e-15 C7.56362657,-0.00169486762 8.79257385,0.507053434 9.69758983,1.41372422" id="Stroke-3"></path>
                                <polyline id="Stroke-5" points="0 3.36000419 1.48365018 5.37999415 3.35999994 3.78000418"></polyline>
                                <polyline id="Stroke-7" points="12.5999998 6.30000414 11.0756098 4.22940417 9.23999984 5.88000414"></polyline>
                            </g>
                        </g>
                    </g>
                </g>
            </g>
        </g>
    </g>
</svg>