<?xml version="1.0" encoding="UTF-8"?>
<svg width="21px" height="24px" viewBox="0 0 21 24" version="1.1" xmlns="http://www.w3.org/2000/svg" xmlns:xlink="http://www.w3.org/1999/xlink">
    <!-- Generator: sketchtool 61 (101010) - https://sketch.com -->
    <title>F6E4B443-DAC7-49AD-8FE3-AA81CE80EDFD</title>
    <desc>Created with sketchtool.</desc>
    <g id="Page-1" stroke="none" stroke-width="1" fill="none" fill-rule="evenodd" stroke-linejoin="round">
        <g id="Kategori-side" transform="translate(-181.000000, -1.000000)">
            <g id="Header_white">
                <g id="Group-18">
                    <g>
                        <g id="Gratis_fragt" transform="translate(182.000000, 4.399999)">
                            <g id="Group" transform="translate(0.000000, 6.600001)" stroke="#949494" stroke-linecap="round" stroke-width="1.2">
                                <g id="Light">
                                    <path d="M9.92000015,13.2512003 C9.71740973,13.3435792 9.48548511,13.347348 9.28000014,13.2616003 L0.492000007,9.60080022 C0.194023778,9.47649771 -9.46474756e-08,9.18526387 -9.46474756e-08,8.86240021 L-9.46474756e-08,4.52000007 C-9.46474756e-08,4.20176154 0.188329531,3.91369544 0.480000007,3.78640006 L8.88000013,0.134400002 C9.08404051,0.0453494823 9.31595977,0.0453494823 9.52000014,0.134400002 L17.9200003,3.78640006 C18.2116707,3.91369544 18.4000019,4.20176154 18.4000019,4.52000007 L18.4000019,8.88000021 C18.4002272,9.19386177 18.2169013,9.47886158 17.9312003,9.60880022 L9.92000015,13.2512003 Z" id="Shape"></path>
                                    <line x1="9.60000014" y1="7.99520012" x2="9.5" y2="12.5" id="Shape"></line>
                                    <line x1="9.60000014" y1="7.99520012" x2="18.2552003" y2="4.06160006" id="Shape"></line>
                                    <polyline id="Shape" points="13.5784002 1.89920003 4.80000007 5.94080009 4.80000007 8.86800013"></polyline>
                                    <line x1="9.60000014" y1="7.99520012" x2="0.148000002" y2="4.05680006" id="Shape"></line>
                                </g>
                            </g>
                            <path d="M10.06231,4.13961958 L14.661927,-0.677520318 L14.6617922,-0.677379114 C15.3672698,-1.41645085 16.5383084,-1.44368431 17.2773801,-0.73820674 C17.927002,-0.118113184 18.0346998,0.87454778 17.5452856,1.61733921 L17.4791247,1.70852529 L17.4116489,1.79321442 L17.3382078,1.87738115 L10.1245257,9.43457184 L5.69185245,5.00189856 C4.96938252,4.27942862 4.96938252,3.10807341 5.69185245,2.38560347 C6.3268818,1.75057413 7.32177836,1.66598432 8.05299036,2.17253574 L8.14261358,2.24079884 L8.22571104,2.31022539 L8.30811066,2.38556659 L10.06231,4.13961958 Z" id="Stroke-1" stroke="#F9F9F9" stroke-width="2.5" fill="#F88A02" fill-rule="nonzero"></path>
                        </g>
                    </g>
                </g>
            </g>
        </g>
    </g>
</svg>